<svg id="system_update" data-name="system update" xmlns="http://www.w3.org/2000/svg" viewBox="0 0 1000 897"><defs><style>.cls-1{fill:#fff;}</style></defs><rect x="-0.38" y="-0.26" width="1000.88" height="897.55"/><path class="cls-1" d="M831,88.2H169.09c-45.67,0-82.69,26.25-82.69,58.64v596c0,32.38,37,58.64,82.69,58.64H831c45.67,0,82.69-26.26,82.69-58.64v-596C913.72,114.45,876.7,88.2,831,88.2ZM523,723.93H414.13V486.62H335.84V399.7h78.29V321.15H523Zm189.58,0-135.16-231V399.53H716.75V271.11H281.32V723.93H168.11V247.13l50.07-69.67H778.27L830,250V430.93l-52.27,55.69H692.14L832,723.93Z"/></svg>